<svg width="62" height="60" viewBox="0 0 62 60" fill="none" xmlns="http://www.w3.org/2000/svg">
<g clip-path="url(#clip0_101_84)">
<path d="M9.50001 36.3C9.40001 37.7 9.80001 50.4 8.00001 55.8C6.90001 59.2 7.70001 59.4 12 59.2C14.1 51.2 13.8 43.5 9.50001 36.3Z" fill="#462D3B"/>
<path d="M27.8 17C24.1 15.9 19.9 18 19.3 22.1C19 24.3 19 26 19.3 28.5C19.8 29.3 19.3 30.2 18.7 30.5C18 30.8 17.1 31 16.3 30.4C15.7 30 15.6 29.5 15.9 29C15.7 27.2 15.4 24.9 14.7 23.2C12.7 18.6 8.89999 18.2 5.39999 19.3C3.49999 20 1.89999 21.4 0.899994 23.3C2.19999 23.5 5.89999 25.1 9.59999 27.3C11.5 28.4 13.4 29.7 14.9 31.1C16.9 32.9 19.1 32.6 20.9 30.5C22.4 28.5 24.8 26.1 26.9 24.2C28.3 22.9 29.6 21.9 30.4 21.5C31.2 21 32.3 20.4 32.6 19.6C31.1 18.3 29.6 17.6 27.8 17Z" fill="#FFF8F0"/>
<path d="M5.29999 19.3C8.69999 18.1 12.6 18.6 14.6 23.2C15.3 24.9 15.7 27.1 15.8 29C15.8 28.9 15.9 28.8 15.9 28.7C16.5 28.2 18.1 27.8 19.1 28.6C18.8 26 18.8 24.4 19.1 22.2C19.7 18.1 23.9 16 27.6 17.1C29.4 17.6 31 18.3 32.4 19.6C32.7 19.2 32.5 18.7 32.2 18C30.3 14.3 28.8 11.3 27.1 9.09999C27 8.99999 26.9 8.89999 26.9 8.79999C26.4 8.89999 25.7 8.39999 25.5 7.89999C25 6.99999 22.9 5.59999 21.5 5.29999C21.1 5.39999 20.4 5.19999 20.1 4.59999C18.4 4.29999 16.5 4.19999 14.2 4.49999C11.6 4.59999 9.49999 5.39999 7.89999 6.29999L7.99999 6.39999C7.89999 7.09999 7.19999 7.39999 6.79999 7.49999C6.79999 7.39999 6.79999 7.39999 6.79999 7.39999C5.49999 7.99999 3.59999 9.99999 3.39999 10.9C3.39999 11.5 2.79999 12.1 2.29999 12.2L2.19999 12.3C0.29999 16.1 0.79999 19.1 0.0999903 22.5C-9.67085e-06 23.1 0.39999 23.3 0.89999 23.3C1.79999 21.4 3.39999 20 5.29999 19.3Z" fill="#F2692B"/>
<path d="M26 4.30001C25.8 3.40001 25.7 2.10001 24.6 2.10001C23.1 2.10001 21.6 4.80001 21.5 5.30001C22.9 5.60001 25 7.00001 25.5 7.90001C26.1 6.70001 26.3 5.40001 26 4.30001Z" fill="#FFF8F0"/>
<path d="M16 28.7C15.9 28.8 15.9 28.9 15.9 29C15.7 29.5 15.7 30 16.3 30.5C17.1 31.1 18 31 18.7 30.6C19.4 30.3 19.9 29.4 19.3 28.6C18.2 27.8 16.6 28.2 16 28.7Z" fill="#462D3B"/>
<path d="M21.6 5.20001C21.7 4.70001 23.2 2.00001 24.7 2.00001C25.7 2.00001 25.9 3.30001 26.1 4.20001C26.4 5.30001 26.2 6.60001 25.6 7.70001C25.7 8.30001 26.4 8.70001 27 8.60001C28.1 6.60001 28 2.60001 26.3 0.900013C25.6 0.200013 24.7 -0.199987 23.9 0.400013C22.3 1.60001 20.8 2.20001 20.2 4.40001C20.4 5.20001 21.1 5.30001 21.6 5.20001Z" fill="#462D3B"/>
<path d="M2.60001 4.89999C2.40001 4.89999 2.20001 4.89999 2.10001 4.89999C2.00001 4.99999 1.90001 5.19999 1.80001 5.39999C1.70001 5.79999 1.70001 6.29999 1.80001 7.09999C1.90001 8.19999 2.50001 9.99999 3.40001 11C3.60001 9.99999 5.50001 8.09999 6.80001 7.49999C6.30001 6.49999 4.00001 4.99999 2.60001 4.89999Z" fill="#FFF8F0"/>
<path d="M3.40001 10.9C2.60001 10 1.90001 8.20001 1.80001 7.10001C1.70001 6.30001 1.70001 5.80001 1.80001 5.50001C1.80001 5.10001 1.90001 5.00001 2.10001 4.90001C2.20001 4.90001 2.40001 4.90001 2.50001 4.90001C4.00001 5.00001 6.30001 6.5 6.80001 7.4C6.80001 7.4 6.80001 7.40001 6.80001 7.50001C7.20001 7.40001 7.90001 7.10001 8.00001 6.40001C8.00001 6.30001 8.00001 6.30001 7.90001 6.30001C6.80001 4.40001 4.10001 3.50001 2.20001 3.10001C0.800011 2.90001 0.700011 3.60001 0.400011 4.50001C-0.399989 6.70001 0.700011 10.5 2.30001 12.2C2.80001 12.1 3.40001 11.5 3.40001 10.9Z" fill="#462D3B"/>
<path d="M20.1 47.7C20.2 45.3 21.7 43.5 23.9 43.4C24.3 43.3 24.7 43.4 24.7 43.1C24.7 42.4 23.1 42.4 21.8 43C19.9 43.8 19.4 45.6 19.2 47.7C19 50.2 20.5 52.5 20.5 54.6C20.9 54.5 21.3 54.4 21.6 54.2C21.5 52.9 20 50 20.1 47.7Z" fill="#B84526"/>
<path d="M20.4 54.6C19.2 54.9 17.8 54.9 17.1 55C14.5 55.3 13.4 56.6 13.7 59.3C17.2 59.6 19.5 59.5 23 59.3C23 57.2 22.4 55.9 21.5 54.3C21.2 54.4 20.8 54.5 20.4 54.6Z" fill="#462D3B"/>
<path d="M54.7 17.6C51.4 19 49 20.8 47.2 24.3C47.5 25 48 25.5 48.8 25.5C49.5 25.5 49.7 26 50 26.5C50.9 28.4 53.1 28.9 54.8 27.6C55.3 27.2 55.6 26.7 56.4 27.2C57.9 28.2 59.5 27.8 60.9 26.9C60.4 23.6 59.1 20.6 57.2 18.1C56.5 17.4 55.6 17.2 54.7 17.6Z" fill="#FFF8F0"/>
<path d="M9.49999 36.3C13.7 43.6 14 51.3 12 59.2C12.6 59.2 13.1 59.2 13.7 59.2C13.4 56.6 14.5 55.2 17.1 54.9C17.8 54.8 19.2 54.8 20.4 54.5C20.4 52.4 18.8 50.1 19.1 47.6C19.3 45.4 19.8 43.7 21.7 42.9C23 42.3 24.6 42.4 24.6 43C24.6 43.3 24.3 43.2 23.9 43.3C21.8 43.4 20.3 45.2 20.1 47.6C20 49.9 21.5 52.8 21.5 54.1C22.4 55.7 23 57 23 59.1C23.8 59.1 24.8 59 25.8 59C28 58.9 30.7 58.8 32.2 58.7C32.9 58.7 33.5 58.7 34.2 58.6C34.9 58.6 35.6 58.6 36.2 58.6C44.3 58.3 50.8 54.9 55.6 47.7C59.4 42.1 61.5 36.1 61.1 29.3C61.1 28.5 60.8 27 60.8 27C59.3 27.8 57.8 28.3 56.3 27.3C55.5 26.8 55.2 27.3 54.7 27.7C53 29 50.9 28.5 49.9 26.6C49.6 26.1 49.4 25.6 48.7 25.6C47.9 25.6 47.5 25 47.1 24.4C46.2 26 44.9 28.1 43.9 31.1C42.4 35.8 42.3 39 41.4 43.7C40.7 47.1 39.1 50.7 36.2 52.8C35.7 53.2 35.2 53.5 34.6 53.7C33.6 54.1 33.2 53.8 33.2 53.8C33.5 52.5 33.6 50.8 33.7 49.3C33.7 48.6 33.7 48 33.7 47.3C33.7 47.2 33.7 47.1 33.7 47V46.9C33.7 46.8 33.7 46.6 33.7 46.4C33.6 33.5 30.4 27.8 26.6 23.8C24.5 25.7 22.1 28.1 20.6 30.1C18.8 32.1 16.6 32.4 14.6 30.7C13.1 29.3 11.2 28 9.29999 26.9C9.69999 30.3 9.49999 33.4 9.49999 36.3Z" fill="#F2692B"/>
<path d="M9.60001 24.9C8.90001 25 8.30001 24.7 8.20001 24C8.10001 23.2 8.30001 22.6 9.20001 22.4C10 22.2 10.6 22.5 10.7 23.4C10.9 24.2 10.4 24.6 9.60001 24.9Z" fill="#462D3B"/>
<path d="M25.1 20.5C25.3 21.5 25 22.1 24.1 22.3C23.4 22.5 22.9 22.1 22.6 21.5C22.3 20.7 22.6 20 23.7 19.8C24.2 19.7 24.9 19.8 25.1 20.5Z" fill="#462D3B"/>
</g>
<defs>
<clipPath id="clip0_101_84">
<rect width="62" height="60" fill="white"/>
</clipPath>
</defs>
</svg>
